<?xml version="1.0" encoding="UTF-8" standalone="no"?>
<!DOCTYPE svg PUBLIC "-//W3C//DTD SVG 1.1//EN"
 "http://www.w3.org/Graphics/SVG/1.1/DTD/svg11.dtd">
<!-- Generated by graphviz version 2.42.3 (20191010.1750)
 -->
<!-- Title: dependency&#45;cruiser output Pages: 1 -->
<svg width="174pt" height="134pt"
 viewBox="0.00 0.00 174.26 134.00" xmlns="http://www.w3.org/2000/svg" xmlns:xlink="http://www.w3.org/1999/xlink">
<g id="graph0" class="graph" transform="scale(1 1) rotate(0) translate(4 130)">
<title>dependency&#45;cruiser output</title>
<polygon fill="white" stroke="transparent" points="-4,4 -4,-130 170.26,-130 170.26,4 -4,4"/>
<g id="clust1" class="cluster">
<title>cluster_src</title>
<path fill="#ffffff" stroke="black" stroke-width="2" d="M20,-8C20,-8 146.26,-8 146.26,-8 152.26,-8 158.26,-14 158.26,-20 158.26,-20 158.26,-106 158.26,-106 158.26,-112 152.26,-118 146.26,-118 146.26,-118 20,-118 20,-118 14,-118 8,-112 8,-106 8,-106 8,-20 8,-20 8,-14 14,-8 20,-8"/>
<text text-anchor="middle" x="83.13" y="-106.8" font-family="Helvetica,sans-Serif" font-weight="bold" font-size="9.00">src</text>
</g>
<g id="clust2" class="cluster">
<title>cluster_src/utils</title>
<path fill="#ffffff" stroke="black" stroke-width="2" d="M92.26,-42C92.26,-42 138.26,-42 138.26,-42 144.26,-42 150.26,-48 150.26,-54 150.26,-54 150.26,-81 150.26,-81 150.26,-87 144.26,-93 138.26,-93 138.26,-93 92.26,-93 92.26,-93 86.26,-93 80.26,-87 80.26,-81 80.26,-81 80.26,-54 80.26,-54 80.26,-48 86.26,-42 92.26,-42"/>
<text text-anchor="middle" x="115.26" y="-81.8" font-family="Helvetica,sans-Serif" font-weight="bold" font-size="9.00">utils</text>
</g>
<!-- src/index.js -->
<g id="node1" class="node">
<title>src/index.js</title>
<g id="a_node1"><a xlink:href="src/index.js" xlink:title="index.js">
<path fill="#ffffcc" stroke="black" d="M64.33,-50.5C64.33,-50.5 21.67,-50.5 21.67,-50.5 18.83,-50.5 16,-47.67 16,-44.83 16,-44.83 16,-39.17 16,-39.17 16,-36.33 18.83,-33.5 21.67,-33.5 21.67,-33.5 64.33,-33.5 64.33,-33.5 67.17,-33.5 70,-36.33 70,-39.17 70,-39.17 70,-44.83 70,-44.83 70,-47.67 67.17,-50.5 64.33,-50.5"/>
<text text-anchor="middle" x="43" y="-39.3" font-family="Helvetica,sans-Serif" font-size="9.00">index.js</text>
</a>
</g>
</g>
<!-- src/la&#45;croix.jpeg -->
<g id="node2" class="node">
<title>src/la&#45;croix.jpeg</title>
<g id="a_node2"><a xlink:href="src/la-croix.jpeg" xlink:title="la&#45;croix.jpeg">
<path fill="#ffffcc" stroke="black" d="M141.62,-33.5C141.62,-33.5 88.9,-33.5 88.9,-33.5 86.07,-33.5 83.24,-30.67 83.24,-27.83 83.24,-27.83 83.24,-22.17 83.24,-22.17 83.24,-19.33 86.07,-16.5 88.9,-16.5 88.9,-16.5 141.62,-16.5 141.62,-16.5 144.45,-16.5 147.28,-19.33 147.28,-22.17 147.28,-22.17 147.28,-27.83 147.28,-27.83 147.28,-30.67 144.45,-33.5 141.62,-33.5"/>
<text text-anchor="middle" x="115.26" y="-22.3" font-family="Helvetica,sans-Serif" font-size="9.00">la&#45;croix.jpeg</text>
</a>
</g>
</g>
<!-- src/index.js&#45;&gt;src/la&#45;croix.jpeg -->
<g id="edge1" class="edge">
<title>src/index.js&#45;&gt;src/la&#45;croix.jpeg</title>
<path fill="none" stroke="#000000" stroke-width="2" stroke-opacity="0.200000" d="M70.16,-35.67C72.4,-35.13 74.69,-34.57 76.99,-34.02"/>
<polygon fill="#000000" fill-opacity="0.200000" stroke="#000000" stroke-width="2" stroke-opacity="0.200000" points="77.75,-35.99 83.09,-32.54 76.77,-31.91 77.75,-35.99"/>
</g>
<!-- src/utils/index.js -->
<g id="node3" class="node">
<title>src/utils/index.js</title>
<g id="a_node3"><a xlink:href="src/utils/index.js" xlink:title="index.js">
<path fill="#ffffcc" stroke="black" d="M136.59,-67.5C136.59,-67.5 93.93,-67.5 93.93,-67.5 91.09,-67.5 88.26,-64.67 88.26,-61.83 88.26,-61.83 88.26,-56.17 88.26,-56.17 88.26,-53.33 91.09,-50.5 93.93,-50.5 93.93,-50.5 136.59,-50.5 136.59,-50.5 139.43,-50.5 142.26,-53.33 142.26,-56.17 142.26,-56.17 142.26,-61.83 142.26,-61.83 142.26,-64.67 139.43,-67.5 136.59,-67.5"/>
<text text-anchor="middle" x="115.26" y="-56.3" font-family="Helvetica,sans-Serif" font-size="9.00">index.js</text>
</a>
</g>
</g>
<!-- src/index.js&#45;&gt;src/utils/index.js -->
<g id="edge2" class="edge">
<title>src/index.js&#45;&gt;src/utils/index.js</title>
<path fill="none" stroke="#000000" stroke-width="2" stroke-opacity="0.200000" d="M70.16,-48.33C73.95,-49.25 77.89,-50.2 81.78,-51.14"/>
<polygon fill="#000000" fill-opacity="0.200000" stroke="#000000" stroke-width="2" stroke-opacity="0.200000" points="81.52,-53.24 87.84,-52.61 82.5,-49.16 81.52,-53.24"/>
</g>
</g>
</svg>
